<?xml version="1.0" encoding="UTF-8" standalone="no"?>
<!-- Created with Inkscape (http://www.inkscape.org/) -->

<svg
   xmlns:dc="http://purl.org/dc/elements/1.1/"
   xmlns:cc="http://creativecommons.org/ns#"
   xmlns:rdf="http://www.w3.org/1999/02/22-rdf-syntax-ns#"
   xmlns:svg="http://www.w3.org/2000/svg"
   xmlns="http://www.w3.org/2000/svg"
   xmlns:sodipodi="http://sodipodi.sourceforge.net/DTD/sodipodi-0.dtd"
   xmlns:inkscape="http://www.inkscape.org/namespaces/inkscape"
   width="210mm"
   height="297mm"
   viewBox="0 0 744.09448819 1052.3622047"
   id="svg2"
   version="1.1"
   inkscape:version="0.91 r13725"
   sodipodi:docname="arrow.svg">
  <defs
     id="defs4" />
  <sodipodi:namedview
     id="base"
     pagecolor="#ffffff"
     bordercolor="#666666"
     borderopacity="1.0"
     inkscape:pageopacity="0.0"
     inkscape:pageshadow="2"
     inkscape:zoom="0.35"
     inkscape:cx="-109.28571"
     inkscape:cy="520"
     inkscape:document-units="px"
     inkscape:current-layer="layer1"
     showgrid="false"
     inkscape:window-width="1309"
     inkscape:window-height="744"
     inkscape:window-x="57"
     inkscape:window-y="24"
     inkscape:window-maximized="1" />
  <metadata
     id="metadata7">
    <rdf:RDF>
      <cc:Work
         rdf:about="">
        <dc:format>image/svg+xml</dc:format>
        <dc:type
           rdf:resource="http://purl.org/dc/dcmitype/StillImage" />
        <dc:title />
      </cc:Work>
    </rdf:RDF>
  </metadata>
  <g
     inkscape:label="Layer 1"
     inkscape:groupmode="layer"
     id="layer1">
    <path
       style="opacity:1;fill:#8989ff;fill-opacity:1;stroke:#000000;stroke-width:1.11126018;stroke-miterlimit:4;stroke-dasharray:none;stroke-opacity:1"
       d="m 683.30668,470.35403 c 0.104,-20.67123 -25.17454,-27.64224 -44.86317,-31.3185 -9.74279,-2.38464 -19.49002,-4.64315 -29.40676,-6.50339 -9.24119,-2.30383 -18.79384,-3.6678 -27.76796,-6.61659 -12.67771,-4.45474 -25.34258,-9.0087 -37.32563,-14.60723 -11.20387,-6.14694 -21.91727,-12.88006 -31.55967,-20.59144 -7.92579,-6.46678 -15.89893,-12.89643 -23.71077,-19.45354 l 20.00839,39.06518 c 7.83517,6.09017 15.50633,12.31712 23.22564,18.50302 10.00787,7.5525 20.78447,14.36902 32.49129,20.09958 12.62326,5.13245 25.34791,10.1035 38.26933,14.72435 5.11827,1.41488 10.3235,2.55058 15.53848,3.67718 -7.8061,2.82102 -15.63434,5.60164 -23.40667,8.48446 -11.41026,4.37724 -23.0424,8.43098 -34.8083,12.15578 -12.32872,3.35523 -24.65066,6.784 -36.70053,10.75439 -12.29583,3.4625 -23.58692,8.80536 -34.55969,14.38864 -11.58767,6.40657 -23.02783,12.9688 -33.92012,20.13276 l 26.35845,35.51291 c 10.53203,-7.2352 21.59333,-13.91361 33.24914,-19.92978 10.81797,-5.35831 21.77245,-10.68974 33.85735,-13.99047 11.98887,-3.98733 24.29532,-7.33881 36.53641,-10.7778 11.95668,-3.56718 23.57611,-7.89402 35.1655,-12.15383 11.20889,-4.02107 22.35772,-8.14322 33.49774,-12.2846 10.00652,-4.14571 20.72715,-8.40472 26.96425,-16.31116 1.95682,-4.83371 2.84804,-9.13192 2.8673,-12.95992 z m -8.55122,10.95348 c -0.009,-0.004 -0.0412,-0.0447 -0.10379,-0.12883 -0.33153,-0.44592 -0.57066,-0.78369 -0.89543,-1.22181 0.54444,0.61559 1.04159,1.36987 0.99922,1.35064 z m -115.03248,4.0773 -23.77353,-37.73016 c -10.96942,0.48167 -21.96722,0.42028 -32.94986,0.44306 -12.2022,-0.0322 -24.40411,-0.0672 -36.60639,-0.041 -13.27238,0.0455 -26.54395,0.0728 -39.81643,0.0878 -11.56568,0.0429 -23.13047,-0.13484 -34.69486,-0.24592 -7.57073,-0.0721 -15.14282,-0.0905 -22.71398,-0.0995 -7.02324,-0.005 -14.04468,-0.003 -21.06793,-0.002 -7.18285,0.0135 -14.3659,-0.0338 -21.54822,0.0449 -11.65086,0.11873 -23.30347,0.27766 -34.95553,0.34351 -14.22201,0.0564 -28.44312,0.007 -42.66442,-0.1093 -11.5203,-0.14852 -22.94496,-0.23782 -34.39558,0.81194 -10.81431,1.31723 -21.51056,3.05341 -32.40922,3.96605 -11.97927,0.83837 -24.01453,0.86995 -36.02956,0.96029 -11.74524,-0.40503 -23.3368,0.24554 -34.99656,1.27061 -8.39109,0.7803 -16.83041,1.11692 -25.26993,1.28234 -7.83229,0.0961 -15.6656,0.0511 -23.49837,0.0293 -4.8282,-0.0126 -2.41958,-0.006 -7.22136,-0.0156 l 23.57803,37.43348 c 4.79557,-0.001 2.39,10e-5 7.2117,-0.004 7.85053,-0.0144 15.70288,-0.0401 23.55147,-0.19519 8.55738,-0.1933 17.09599,-0.60105 25.57404,-1.62193 11.41223,-1.1492 22.82743,-1.60344 34.33524,-1.31552 12.19887,-0.0399 24.41197,-0.15055 36.57261,-1.01493 10.89819,-0.97168 21.62573,-2.73404 32.49129,-3.88602 11.2175,-1.01636 22.47406,-0.8179 33.74875,-0.8139 14.17479,-0.11771 28.35133,-0.16536 42.52684,-0.1093 11.79693,0.0662 23.5918,0.225 35.38756,0.34352 7.20094,0.0777 14.40227,0.032 21.60373,0.0449 7.02225,9.9e-4 14.0457,0.003 21.06793,-0.002 7.52975,-0.009 15.05918,-0.0251 22.58847,-0.0976 11.4609,-0.11144 22.92127,-0.29185 34.38351,-0.24788 13.30887,0.015 26.61869,0.0425 39.92745,0.0878 12.1854,0.0262 24.37041,-0.009 36.55571,-0.041 11.16919,0.0231 22.35071,-0.0306 33.5074,0.44306 z"
       id="path4136"
       inkscape:connector-curvature="0" />
  </g>
</svg>
